<mxfile host="app.diagrams.net" modified="2024-05-12T17:12:09.792Z" agent="Mozilla/5.0 (Macintosh; Intel Mac OS X 10.15; rv:126.0) Gecko/20100101 Firefox/126.0" version="24.4.0" etag="F2ueNRmhZ5IWQL8C7isW" type="github">
  <diagram name="Страница — 1" id="OnuPSC-ifFxc63zqWhEj">
    <mxGraphModel>
      <root>
        <mxCell id="0" />
        <mxCell id="1" parent="0" />
      </root>
    </mxGraphModel>
  </diagram>
</mxfile>
